<svg width="35" height="29" viewBox="0 0 35 29" fill="none" xmlns="http://www.w3.org/2000/svg">
<path d="M34.2794 9.21279C33.8783 8.31113 33.212 7.66104 32.3521 7.33359L32.3405 7.32949C31.9491 7.18453 31.5323 7.11033 31.112 7.11074H31.0657C29.0972 7.13877 27.0875 8.72129 26.0657 11.0489C25.3163 12.7511 25.2303 14.5817 25.8359 15.9462C26.2362 16.8485 26.904 17.4986 27.7675 17.8261L27.7769 17.8295C28.1684 17.9745 28.5851 18.0487 29.0054 18.0482C30.9927 18.0482 33.0234 16.4657 34.064 14.1073C34.804 12.4072 34.8857 10.5779 34.2794 9.21279ZM26.414 19.252C25.2787 18.6067 24.2056 17.9963 23.5046 16.8998C21.5707 13.8646 20.4029 12.0326 17.341 12.0326C14.2791 12.0326 13.1084 13.8646 11.1703 16.8998C10.4679 17.9977 9.39255 18.6088 8.25364 19.2568C6.9478 19.9992 5.5986 20.7662 5.01614 22.2756C4.78965 22.8197 4.67558 23.3998 4.6801 23.9846C4.6801 26.4421 6.70354 28.4416 9.18948 28.4416C10.4722 28.4416 11.8373 28.0212 13.2819 27.5762C14.6708 27.1482 16.1067 26.706 17.3483 26.706C18.5898 26.706 20.0221 27.1482 21.406 27.5762C22.8477 28.0185 24.2063 28.4389 25.4926 28.4389C27.9749 28.4389 29.9948 26.4394 29.9948 23.9818C29.9968 23.3967 29.8803 22.8165 29.6515 22.2729C29.069 20.7621 27.7191 19.9944 26.414 19.252ZM9.68089 9.62979C10.5408 10.6504 11.6321 11.2123 12.7536 11.2123C12.9067 11.2123 13.0596 11.2015 13.2111 11.1802C15.5503 10.8548 17.0079 8.15459 16.5295 5.02783C16.3293 3.71328 15.7946 2.48897 15.0285 1.58115C14.17 0.562598 13.0774 0.00136722 11.9565 0.00136722C11.8034 0.00140186 11.6505 0.0121408 11.4991 0.0334962C9.15985 0.358887 7.70225 3.05908 8.18065 6.18584C8.3801 7.49834 8.91487 8.72129 9.68089 9.62979ZM21.4717 11.1802C21.6232 11.2015 21.7761 11.2123 21.9292 11.2123C23.0515 11.2123 24.142 10.6504 25.0019 9.62979C25.7672 8.72129 26.2991 7.49834 26.5014 6.18447C26.9798 3.05908 25.5222 0.358887 23.183 0.032129C23.0316 0.0107736 22.8787 3.46395e-05 22.7256 0C21.6047 0.00136719 20.5121 0.562598 19.6535 1.58115C18.8875 2.48897 18.3528 3.71328 18.1533 5.0292C17.6749 8.15459 19.1325 10.8548 21.4717 11.1802ZM6.90516 17.8295L6.91528 17.8261C7.77741 17.4986 8.44442 16.8492 8.84405 15.9476C9.44963 14.5804 9.36436 12.7518 8.61641 11.0496C7.58085 8.69394 5.5509 7.11074 3.56577 7.11074C3.14539 7.11017 2.72864 7.18437 2.33725 7.32949L2.32714 7.33291C1.46717 7.65762 0.800163 8.30977 0.400534 9.21143C-0.205052 10.5786 -0.119779 12.4072 0.62817 14.1094C1.66374 16.465 3.69368 18.0482 5.67881 18.0482C6.09847 18.0486 6.51445 17.9744 6.90516 17.8295Z" fill="black"/>
</svg>
