<svg width="42" height="52" viewBox="0 0 42 52" fill="none" xmlns="http://www.w3.org/2000/svg">
<path d="M6 43.5V21C6 17.0218 7.58035 13.2064 10.3934 10.3934C13.2064 7.58035 17.0218 6 21 6C24.9782 6 28.7936 7.58035 31.6066 10.3934C34.4196 13.2064 36 17.0218 36 21V43.5M6 43.5H36M6 43.5H1M36 43.5H41M18.5 51H23.5" stroke="black" stroke-width="2" stroke-linecap="round" stroke-linejoin="round"/>
<path d="M21 6C22.3807 6 23.5 4.88071 23.5 3.5C23.5 2.11929 22.3807 1 21 1C19.6193 1 18.5 2.11929 18.5 3.5C18.5 4.88071 19.6193 6 21 6Z" stroke="black" stroke-width="2"/>
</svg>
