<svg width="53" height="48" viewBox="0 0 53 48" fill="none" xmlns="http://www.w3.org/2000/svg">
<path d="M44.2917 29C48.0788 25.35 51.9167 20.975 51.9167 15.25C51.9167 11.6033 50.4439 8.10591 47.8223 5.52728C45.2007 2.94866 41.645 1.5 37.9375 1.5C33.4642 1.5 30.3125 2.75 26.5 6.5C22.6875 2.75 19.5359 1.5 15.0625 1.5C11.355 1.5 7.79938 2.94866 5.17778 5.52728C2.55618 8.10591 1.08337 11.6033 1.08337 15.25C1.08337 21 4.89587 25.375 8.70837 29L26.5 46.5L44.2917 29Z" stroke="black" stroke-width="2" stroke-linecap="round" stroke-linejoin="round"/>
<path d="M26.5 6.5L18.9767 13.9C18.4603 14.4043 18.0504 15.0041 17.7707 15.6648C17.491 16.3256 17.347 17.0343 17.347 17.75C17.347 18.4657 17.491 19.1744 17.7707 19.8352C18.0504 20.4959 18.4603 21.0957 18.9767 21.6C21.0609 23.65 24.3905 23.725 26.6017 21.775L31.863 17.025C33.1817 15.848 34.8987 15.196 36.6794 15.196C38.4601 15.196 40.1771 15.848 41.4959 17.025L49.0192 23.675M41.75 31.5L36.6667 26.5M34.125 39L29.0417 34" stroke="black" stroke-width="2" stroke-linecap="round" stroke-linejoin="round"/>
</svg>
