<svg width="48" height="43" viewBox="0 0 48 43" fill="none" xmlns="http://www.w3.org/2000/svg">
<path d="M31.5 41.5C31.5 35.975 24.785 31.5 16.5 31.5C8.215 31.5 1.5 35.975 1.5 41.5M36.07 6.93C36.9986 7.85859 37.7353 8.96101 38.2379 10.1743C38.7404 11.3876 38.9991 12.688 38.9991 14.0012C38.9991 15.3145 38.7404 16.6149 38.2379 17.8282C37.7353 19.0415 36.9986 20.1439 36.07 21.0725M41.5 1.5C43.1418 3.14135 44.4443 5.09006 45.3328 7.23484C46.2214 9.37961 46.6788 11.6784 46.6788 14C46.6788 16.3216 46.2214 18.6204 45.3328 20.7652C44.4443 22.9099 43.1418 24.8587 41.5 26.5M16.5 24C13.8478 24 11.3043 22.9464 9.42893 21.0711C7.55357 19.1957 6.5 16.6522 6.5 14C6.5 11.3478 7.55357 8.8043 9.42893 6.92893C11.3043 5.05357 13.8478 4 16.5 4C19.1522 4 21.6957 5.05357 23.5711 6.92893C25.4464 8.8043 26.5 11.3478 26.5 14C26.5 16.6522 25.4464 19.1957 23.5711 21.0711C21.6957 22.9464 19.1522 24 16.5 24Z" stroke="black" stroke-width="2" stroke-linecap="round" stroke-linejoin="round"/>
</svg>
